<?xml version="1.0" encoding="utf-8"?>
<!-- Generator: Adobe Illustrator 23.0.2, SVG Export Plug-In . SVG Version: 6.00 Build 0)  -->
<svg version="1.1" id="圖層_1" xmlns="http://www.w3.org/2000/svg" xmlns:xlink="http://www.w3.org/1999/xlink" x="0px" y="0px"
	 viewBox="0 0 150 40" style="enable-background:new 0 0 150 40;" xml:space="preserve">
<style type="text/css">
	.st0{fill:#19B1C6;}
	.st1{fill:#FFFFFF;}
	.st2{fill-rule:evenodd;clip-rule:evenodd;}
	.st3{fill:#E64437;}
</style>
<g>
	<g>
		<g>
			<path class="st0" d="M60.67,24.12c0,2.19-0.31,5.2-0.92,9.04c-0.51,3.13-1.53,5.05-3.07,5.75c-1.53,0.73-4.07,1.1-7.61,1.1
				c-1.84,0-2.76-0.68-2.76-2.05c0-1.4,0.82-2.1,2.45-2.1l2.35,0.05c2.18,0.06,3.51-0.56,3.99-1.87c0.61-1.7,1-4.65,1.17-8.85
				c0.07-1.1-0.66-1.64-2.2-1.64h-4.85c-1.16,3.68-2.81,6.63-4.95,8.85c-2.25,2.34-5.4,4.17-9.45,5.48
				c-4.12,1.34-7.77,2.01-10.93,2.01c-1.6,0-2.4-0.64-2.4-1.92c0-0.52,0.26-0.94,0.77-1.28c0.51-0.34,1.24-0.55,2.2-0.64
				c6.2-0.58,10.91-1.93,14.15-4.06c3.17-2.07,5.28-4.88,6.34-8.44h-6.08c-1.23,1.92-2.67,3.54-4.34,4.88
				c-1.84,1.46-4.09,2.62-6.74,3.47c-2.86,0.94-4.77,1.41-5.72,1.41c-1.26,0-1.89-0.58-1.89-1.73c0-0.73,1.09-1.37,3.27-1.92
				c5.38-1.4,9.02-3.44,10.93-6.11h-8.07c-4.43,2.65-7.29,3.97-8.58,3.97c-1.29,0-1.94-0.61-1.94-1.83c0-0.82,0.61-1.48,1.84-1.96
				c4.77-1.79,8.43-4.11,10.98-6.94h-1.63c-1.87,0-3.24-0.32-4.11-0.96c-0.87-0.64-1.23-1.66-1.1-3.06V4.04
				c0-1.46,0.49-2.52,1.46-3.19c0.97-0.67,2.44-0.94,4.42-0.82h24.62c1.87,0,3.24,0.32,4.09,0.96c0.85,0.64,1.23,1.66,1.12,3.06
				v8.72c0,1.43-0.42,2.47-1.25,3.13c-0.83,0.65-2.15,0.95-3.96,0.89H33.49c-1.09,1.34-2.11,2.48-3.07,3.42h25.54
				C59.1,20.2,60.67,21.5,60.67,24.12z"/>
			<path class="st1" d="M53.06,6.78V4.82c0-1.06-0.65-1.63-1.94-1.69H28.03c-1.26,0-1.89,0.56-1.89,1.69v1.96v3.01v2.1
				c0,1.1,0.63,1.67,1.89,1.73h23.09c1.23,0,1.87-0.58,1.94-1.73v-2.1V6.78z"/>
			<path class="st0" d="M96.58,25.19c0.99,1.96,1.48,4.16,1.48,6.59v2.1c0,0.58-0.23,1.07-0.69,1.48c-0.46,0.41-1.01,0.62-1.66,0.62
				c-0.72,0-1.29-0.19-1.74-0.57c-0.44-0.38-0.66-0.89-0.66-1.53v-1.37c0-1.52-0.15-2.94-0.46-4.24c-0.34-1.43-1.12-2.61-2.32-3.54
				c-1.21-0.93-2.9-1.39-5.08-1.39H74.92v10.54c0,0.58-0.24,1.07-0.72,1.48c-0.48,0.41-1.04,0.62-1.69,0.62
				c-0.65,0-1.2-0.21-1.66-0.62c-0.46-0.41-0.69-0.9-0.69-1.48V5.96c0-0.58,0.23-1.08,0.69-1.51c0.46-0.43,1.01-0.64,1.66-0.64h11.9
				c4.5,0,7.94,0.84,10.35,2.53c2.4,1.69,3.6,3.95,3.6,6.78c0,1.86-0.57,3.53-1.71,5.02c-1.14,1.49-2.77,2.57-4.88,3.24
				C94,21.96,95.6,23.23,96.58,25.19z M91.09,17.76c1.69-1.05,2.53-2.49,2.53-4.31c0-1.89-0.76-3.29-2.27-4.22
				c-1.52-0.93-4.01-1.39-7.48-1.39h-8.33c-0.41,0-0.61,0.18-0.61,0.55v10.95h9.2C87.08,19.33,89.41,18.8,91.09,17.76z"/>
			<path class="st0" d="M107.23,35.37c-0.46-0.41-0.69-0.9-0.69-1.48V5.96c0-0.58,0.23-1.08,0.69-1.51
				c0.46-0.43,1.01-0.64,1.66-0.64h11.65c3.2,0,5.84,0.49,7.92,1.46c1.91,0.91,3.35,2.11,4.32,3.58c0.97,1.48,1.46,3.19,1.46,5.13
				c0,1.8-0.44,3.44-1.33,4.93c-0.92,1.61-2.43,2.89-4.52,3.83c-2.09,0.94-4.71,1.41-7.84,1.41h-9.25v9.72
				c0,0.58-0.24,1.07-0.72,1.48c-0.48,0.41-1.04,0.62-1.69,0.62C108.25,35.98,107.69,35.78,107.23,35.37z M127.11,18.58
				c1.58-1.05,2.38-2.58,2.38-4.59c0-2.01-0.79-3.54-2.38-4.59c-1.58-1.05-3.93-1.57-7.02-1.57h-8.17c-0.41,0-0.61,0.18-0.61,0.55
				v11.77h8.79C123.18,20.15,125.52,19.63,127.11,18.58z"/>
		</g>
	</g>
	<g>
		<path class="st2" d="M32.25,12.46c-0.82,0-1.61,0-2.42,0c0-2.88,0-5.75,0-8.64c0.8,0,1.6,0,2.42,0
			C32.25,6.7,32.25,9.57,32.25,12.46z"/>
		<path class="st2" d="M37.28,3.82c0.82,0,1.6,0,2.42,0c0,2.88,0,5.75,0,8.64c-0.8,0-1.59,0-2.42,0
			C37.28,9.58,37.28,6.71,37.28,3.82z"/>
		<path class="st2" d="M52.11,12.42c-0.81,0-1.6,0-2.42,0c0-2.87,0-5.73,0-8.6c0.8,0,1.59,0,2.42,0
			C52.11,6.68,52.11,9.54,52.11,12.42z"/>
		<path class="st2" d="M28.53,12.46c-0.4,0-0.78,0-1.18,0c0-2.88,0-5.75,0-8.64c0.39,0,0.77,0,1.18,0
			C28.53,6.69,28.53,9.57,28.53,12.46z"/>
		<path class="st2" d="M34.73,12.46c-0.4,0-0.77,0-1.17,0c0-2.88,0-5.75,0-8.64c0.38,0,0.76,0,1.17,0
			C34.73,6.69,34.73,9.57,34.73,12.46z"/>
		<path class="st2" d="M41,3.82c0.4,0,0.78,0,1.18,0c0,2.88,0,5.75,0,8.64c-0.38,0-0.77,0-1.18,0C41,9.58,41,6.71,41,3.82z"/>
		<path class="st2" d="M44.66,12.46c-0.4,0-0.78,0-1.18,0c0-2.88,0-5.75,0-8.64c0.38,0,0.77,0,1.18,0
			C44.66,6.69,44.66,9.57,44.66,12.46z"/>
		<path class="st2" d="M48.39,12.46c-0.4,0-0.77,0-1.17,0c0-2.88,0-5.75,0-8.64c0.38,0,0.76,0,1.17,0
			C48.39,6.69,48.39,9.57,48.39,12.46z"/>
	</g>
	<g>
		<rect x="26.14" y="8.11" class="st3" width="26.92" height="0.64"/>
	</g>
</g>
</svg>
